<svg width="16" height="16" viewBox="0 0 16 16" fill="none" xmlns="http://www.w3.org/2000/svg">
<g clip-path="url(#clip0_2025_2948)">
<path d="M4.66668 5.00008C6.50763 5.00008 8.00001 4.25389 8.00001 3.33341C8.00001 2.41294 6.50763 1.66675 4.66668 1.66675C2.82573 1.66675 1.33334 2.41294 1.33334 3.33341C1.33334 4.25389 2.82573 5.00008 4.66668 5.00008Z" stroke="#2E2E2E" stroke-width="1.5" stroke-linecap="round" stroke-linejoin="round"/>
<path d="M1.33334 3.3335C1.33334 3.3335 1.33334 4.74636 1.33334 5.66683C1.33334 6.5873 2.82573 7.3335 4.66668 7.3335C6.50761 7.3335 8.00001 6.5873 8.00001 5.66683C8.00001 5.12163 8.00001 3.3335 8.00001 3.3335" stroke="#2E2E2E" stroke-width="1.5" stroke-linecap="round" stroke-linejoin="round"/>
<path d="M1.33334 5.66675C1.33334 5.66675 1.33334 7.07961 1.33334 8.00008C1.33334 8.92055 2.82573 9.66675 4.66668 9.66675C6.50761 9.66675 8.00001 8.92055 8.00001 8.00008C8.00001 7.45488 8.00001 5.66675 8.00001 5.66675" stroke="#2E2E2E" stroke-width="1.5" stroke-linecap="round" stroke-linejoin="round"/>
<path d="M1.33334 8C1.33334 8 1.33334 9.41287 1.33334 10.3333C1.33334 11.2538 2.82573 12 4.66668 12C6.50761 12 8.00001 11.2538 8.00001 10.3333C8.00001 9.78813 8.00001 8 8.00001 8" stroke="#2E2E2E" stroke-width="1.5" stroke-linecap="round" stroke-linejoin="round"/>
<path d="M1.33334 10.3335C1.33334 10.3335 1.33334 11.7464 1.33334 12.6668C1.33334 13.5873 2.82573 14.3335 4.66668 14.3335C6.50761 14.3335 8.00001 13.5873 8.00001 12.6668C8.00001 12.1216 8.00001 10.3335 8.00001 10.3335" stroke="#2E2E2E" stroke-width="1.5" stroke-linecap="round" stroke-linejoin="round"/>
<path d="M11.3333 9.66683C13.1743 9.66683 14.6667 8.92064 14.6667 8.00016C14.6667 7.07969 13.1743 6.3335 11.3333 6.3335C9.49238 6.3335 8 7.07969 8 8.00016C8 8.92064 9.49238 9.66683 11.3333 9.66683Z" stroke="#2E2E2E" stroke-width="1.5" stroke-linecap="round" stroke-linejoin="round"/>
<path d="M8 8C8 8 8 9.41287 8 10.3333C8 11.2538 9.4924 12 11.3333 12C13.1743 12 14.6667 11.2538 14.6667 10.3333C14.6667 9.78813 14.6667 8 14.6667 8" stroke="#2E2E2E" stroke-width="1.5" stroke-linecap="round" stroke-linejoin="round"/>
<path d="M8 10.3335C8 10.3335 8 11.7464 8 12.6668C8 13.5873 9.4924 14.3335 11.3333 14.3335C13.1743 14.3335 14.6667 13.5873 14.6667 12.6668C14.6667 12.1216 14.6667 10.3335 14.6667 10.3335" stroke="#2E2E2E" stroke-width="1.5" stroke-linecap="round" stroke-linejoin="round"/>
</g>
<defs>
<clipPath id="clip0_2025_2948">
<rect width="16" height="16" fill="white"/>
</clipPath>
</defs>
</svg>
