<svg width="16" height="16" viewBox="0 0 16 16" fill="none" xmlns="http://www.w3.org/2000/svg">
<path d="M8.00001 14.6666C7.07779 14.6666 6.21112 14.4915 5.40001 14.1413C4.5889 13.791 3.88334 13.3161 3.28334 12.7166C2.68334 12.117 2.20846 11.4115 1.85868 10.5999C1.5089 9.78836 1.33379 8.9217 1.33334 7.99992C1.3329 7.07814 1.50801 6.21147 1.85868 5.39992C2.20934 4.58836 2.68423 3.88281 3.28334 3.28325C3.88246 2.6837 4.58801 2.20881 5.40001 1.85859C6.21201 1.50836 7.07868 1.33325 8.00001 1.33325C8.92134 1.33325 9.78801 1.50836 10.6 1.85859C11.412 2.20881 12.1176 2.6837 12.7167 3.28325C13.3158 3.88281 13.7909 4.58836 14.142 5.39992C14.4931 6.21147 14.668 7.07814 14.6667 7.99992C14.6653 8.9217 14.4902 9.78836 14.1413 10.5999C13.7925 11.4115 13.3176 12.117 12.7167 12.7166C12.1158 13.3161 11.4102 13.7913 10.6 14.1419C9.78979 14.4926 8.92312 14.6675 8.00001 14.6666ZM8.00001 13.3333C9.4889 13.3333 10.75 12.8166 11.7833 11.7833C12.8167 10.7499 13.3333 9.48881 13.3333 7.99992C13.3333 6.51103 12.8167 5.24992 11.7833 4.21658C10.75 3.18325 9.4889 2.66659 8.00001 2.66659C6.51112 2.66659 5.25001 3.18325 4.21668 4.21658C3.18334 5.24992 2.66668 6.51103 2.66668 7.99992C2.66668 9.48881 3.18334 10.7499 4.21668 11.7833C5.25001 12.8166 6.51112 13.3333 8.00001 13.3333ZM8.00001 11.9999C6.8889 11.9999 5.94446 11.611 5.16668 10.8333C4.3889 10.0555 4.00001 9.11103 4.00001 7.99992C4.00001 6.88881 4.3889 5.94436 5.16668 5.16658C5.94446 4.38881 6.8889 3.99992 8.00001 3.99992C9.11112 3.99992 10.0556 4.38881 10.8333 5.16658C11.6111 5.94436 12 6.88881 12 7.99992C12 9.11103 11.6111 10.0555 10.8333 10.8333C10.0556 11.611 9.11112 11.9999 8.00001 11.9999ZM8.00001 10.6666C8.73334 10.6666 9.36112 10.4055 9.88334 9.88325C10.4056 9.36103 10.6667 8.73325 10.6667 7.99992C10.6667 7.26658 10.4056 6.63881 9.88334 6.11659C9.36112 5.59436 8.73334 5.33325 8.00001 5.33325C7.26668 5.33325 6.6389 5.59436 6.11668 6.11659C5.59446 6.63881 5.33334 7.26658 5.33334 7.99992C5.33334 8.73325 5.59446 9.36103 6.11668 9.88325C6.6389 10.4055 7.26668 10.6666 8.00001 10.6666ZM8.00001 9.33325C7.63334 9.33325 7.31957 9.20281 7.05868 8.94192C6.79779 8.68103 6.66712 8.36703 6.66668 7.99992C6.66623 7.63281 6.7969 7.31903 7.05868 7.05859C7.32046 6.79814 7.63423 6.66747 8.00001 6.66658C8.36579 6.6657 8.67979 6.79636 8.94201 7.05859C9.20423 7.32081 9.33468 7.63458 9.33334 7.99992C9.33201 8.36525 9.20157 8.67925 8.94201 8.94192C8.68246 9.20459 8.36846 9.33503 8.00001 9.33325Z" fill="#2E2E2E"/>
</svg>
