<svg width="16" height="16" viewBox="0 0 16 16" fill="none" xmlns="http://www.w3.org/2000/svg">
<g clip-path="url(#clip0_2025_2992)">
<path d="M1.33334 7.99992C1.33334 4.85725 1.33334 3.28592 2.30934 2.30925C3.28668 1.33325 4.85734 1.33325 8.00001 1.33325C11.1427 1.33325 12.714 1.33325 13.69 2.30925C14.6667 3.28659 14.6667 4.85725 14.6667 7.99992C14.6667 11.1426 14.6667 12.7139 13.69 13.6899C12.7147 14.6666 11.1427 14.6666 8.00001 14.6666C4.85734 14.6666 3.28601 14.6666 2.30934 13.6899C1.33334 12.7146 1.33334 11.1426 1.33334 7.99992Z" stroke="#2E2E2E" stroke-width="1.5"/>
<path d="M6.66669 4.6665V11.3332L4.66669 9.04184M9.33335 11.3332V4.6665L11.3334 6.9585" stroke="#2E2E2E" stroke-width="1.5" stroke-linecap="round" stroke-linejoin="round"/>
</g>
<defs>
<clipPath id="clip0_2025_2992">
<rect width="16" height="16" fill="white"/>
</clipPath>
</defs>
</svg>
