<svg width="16" height="16" viewBox="0 0 16 16" fill="none" xmlns="http://www.w3.org/2000/svg">
<path d="M7.99998 1.33325C11.682 1.33325 14.6666 4.31792 14.6666 7.99992C14.6666 11.6819 11.682 14.6666 7.99998 14.6666C4.31798 14.6666 1.33331 11.6819 1.33331 7.99992C1.33331 4.31792 4.31798 1.33325 7.99998 1.33325ZM7.99998 3.99992C7.82317 3.99992 7.6536 4.07016 7.52857 4.19518C7.40355 4.3202 7.33331 4.48977 7.33331 4.66658V7.99992C7.33335 8.17671 7.40361 8.34626 7.52865 8.47125L9.52865 10.4713C9.65438 10.5927 9.82278 10.6599 9.99758 10.6584C10.1724 10.6568 10.3396 10.5867 10.4632 10.4631C10.5868 10.3395 10.6569 10.1723 10.6584 9.99752C10.6599 9.82272 10.5928 9.65432 10.4713 9.52858L8.66665 7.72392V4.66658C8.66665 4.48977 8.59641 4.3202 8.47138 4.19518C8.34636 4.07016 8.17679 3.99992 7.99998 3.99992Z" fill="#FF0000"/>
</svg>
