<svg width="18" height="18" viewBox="0 0 18 18" fill="none" xmlns="http://www.w3.org/2000/svg">
<path d="M11.43 1.5H8.5095C7.1865 1.5 6.138 1.5 5.31825 1.611C4.47375 1.725 3.7905 1.965 3.252 2.50575C2.71275 3.0465 2.4735 3.73275 2.36025 4.58025C2.25 5.40375 2.25 6.456 2.25 7.78425V12.1627C2.25 13.2937 2.94 14.2627 3.92025 14.6693C3.87 13.9867 3.87 13.0305 3.87 12.234V8.4765C3.87 7.51575 3.87 6.687 3.9585 6.024C4.05375 5.313 4.26825 4.632 4.81875 4.07925C5.36925 3.5265 6.048 3.31125 6.756 3.21525C7.416 3.12675 8.241 3.12675 9.19875 3.12675H11.5013C12.4583 3.12675 13.2817 3.12675 13.9425 3.21525C13.7446 2.70997 13.399 2.27605 12.9508 1.97009C12.5026 1.66412 11.9727 1.5003 11.43 1.5Z" fill="#FF6600"/>
<path d="M4.95001 8.5477C4.95001 6.5032 4.95001 5.48095 5.58301 4.8457C6.21526 4.21045 7.23301 4.21045 9.27001 4.21045H11.43C13.4663 4.21045 14.4848 4.21045 15.1178 4.8457C15.7508 5.48095 15.75 6.5032 15.75 8.5477V12.1627C15.75 14.2072 15.75 15.2294 15.1178 15.8647C14.4848 16.4999 13.4663 16.4999 11.43 16.4999H9.27001C7.23376 16.4999 6.21526 16.4999 5.58301 15.8647C4.95001 15.2294 4.95001 14.2072 4.95001 12.1627V8.5477Z" fill="#FF6600"/>
</svg>
