<svg width="20" height="20" viewBox="0 0 16 16" fill="none" xmlns="http://www.w3.org/2000/svg">
<path d="M8 8.66675C9.65685 8.66675 11 7.3236 11 5.66675C11 4.00989 9.65685 2.66675 8 2.66675C6.34315 2.66675 5 4.00989 5 5.66675C5 7.3236 6.34315 8.66675 8 8.66675Z" fill="currentColor"/>
<path d="M11.3333 8C12.4379 8 13.3333 7.10457 13.3333 6C13.3333 4.89543 12.4379 4 11.3333 4C10.2287 4 9.33331 4.89543 9.33331 6C9.33331 7.10457 10.2287 8 11.3333 8Z" fill="currentColor"/>
<path d="M4.66669 8C5.77126 8 6.66669 7.10457 6.66669 6C6.66669 4.89543 5.77126 4 4.66669 4C3.56212 4 2.66669 4.89543 2.66669 6C2.66669 7.10457 3.56212 8 4.66669 8Z" fill="currentColor"/>
<path fill-rule="evenodd" clip-rule="evenodd" d="M11.7127 12H13.2633C13.658 12 13.96 11.66 13.8647 11.2774C13.6187 10.2974 12.9653 8.6667 11.3333 8.6667C10.7427 8.6667 10.28 8.88004 9.91867 9.20004C10.924 9.85137 11.444 10.9934 11.7127 12ZM6.08134 9.20004C5.69407 8.84997 5.18866 8.65943 4.66667 8.6667C3.03467 8.6667 2.38134 10.2974 2.13534 11.2774C2.04 11.66 2.342 12 2.73667 12H4.288C4.55667 10.9934 5.076 9.85137 6.08134 9.20004Z" fill="currentColor"/>
<path d="M8.00002 9.33325C10.4727 9.33325 11.1107 11.5339 11.276 12.6706C11.3294 13.0353 11.0347 13.3333 10.6667 13.3333H5.33336C4.96536 13.3333 4.67136 13.0353 4.72402 12.6706C4.88936 11.5339 5.52735 9.33325 8.00002 9.33325Z" fill="currentColor"/>
</svg>
