<svg width="13" height="10" viewBox="0 0 13 10" fill="none" xmlns="http://www.w3.org/2000/svg">
<path fill-rule="evenodd" clip-rule="evenodd" d="M0.950004 3.75999H10.54C10.66 3.75999 10.77 3.80999 10.86 3.89999L12.38 5.45999C12.66 5.74999 12.46 6.23999 12.06 6.23999H2.47C2.35 6.23999 2.24 6.18999 2.15 6.09999L0.630004 4.53999C0.350004 4.24999 0.550004 3.75999 0.950004 3.75999ZM0.630004 1.68999L2.15 0.12999C2.23 0.0399903 2.35 -0.0100098 2.47 -0.0100098H12.05C12.45 -0.0100098 12.65 0.47999 12.37 0.76999L10.86 2.32999C10.78 2.41999 10.66 2.46999 10.54 2.46999H0.950004C0.550004 2.46999 0.350004 1.97999 0.630004 1.68999ZM12.37 8.29999L10.85 9.85999C10.76 9.94999 10.65 9.99999 10.53 9.99999H0.950004C0.550004 9.99999 0.350004 9.50999 0.630004 9.21999L2.15 7.65999C2.23 7.56999 2.35 7.51999 2.47 7.51999H12.05C12.45 7.51999 12.65 8.00999 12.37 8.29999Z" fill="#333333"/>
</svg>
