<svg width="12" height="12" viewBox="0 0 12 12" fill="none" xmlns="http://www.w3.org/2000/svg">
<path d="M7.53388 8.12937L7.26087 8.41739C7.26087 8.41739 6.61103 9.10082 4.83795 7.23413C3.06486 5.36743 3.71469 4.684 3.71469 4.684L3.8869 4.50219C4.31052 4.05577 4.35072 3.33933 3.98051 2.81611L3.22447 1.74625C2.76605 1.09822 1.881 1.01302 1.35598 1.56564L0.414534 2.55629C0.154721 2.83051 -0.0192873 3.18512 0.00171368 3.57934C0.0557163 4.58739 0.486537 6.7553 2.88905 9.28563C5.43738 11.9678 7.82849 12.0746 8.80594 11.978C9.11555 11.948 9.38437 11.7806 9.60098 11.5525L10.453 10.6549C11.029 10.0489 10.867 9.01082 10.1302 8.58719L8.98415 7.92716C8.50052 7.64935 7.9119 7.73095 7.53388 8.12877" fill="#121212"/>
<path d="M9.00035 6.0003C9.65278 6.00019 10.2874 5.78741 10.808 5.39419C11.3286 5.00098 11.7069 4.44877 11.8854 3.82125C12.064 3.19373 12.0331 2.52511 11.7975 1.91671C11.5619 1.30831 11.1344 0.793296 10.5798 0.449716C10.0251 0.106136 9.37362 -0.0472805 8.72396 0.012715C8.07429 0.0727105 7.4619 0.342848 6.97957 0.78219C6.49724 1.22153 6.17127 1.80613 6.05106 2.44739C5.93085 3.08865 6.02296 3.75161 6.31342 4.33582C6.36817 4.44194 6.38246 4.56436 6.35362 4.68024L6.17481 5.34807C6.15711 5.41419 6.15712 5.48381 6.17484 5.54992C6.19256 5.61604 6.22737 5.67633 6.27578 5.72473C6.32418 5.77313 6.38447 5.80794 6.45058 5.82567C6.5167 5.84339 6.58631 5.8434 6.65244 5.82569L7.32027 5.64689C7.43615 5.61805 7.55856 5.63234 7.66469 5.68709C8.07974 5.89325 8.53691 6.00046 9.00035 6.0003Z" fill="#121212"/>
</svg>
