<svg width="12" height="12" viewBox="0 0 12 12" fill="none" xmlns="http://www.w3.org/2000/svg">
<path d="M5.97 9.59999C6.18 9.59999 6.3576 9.52739 6.5028 9.38219C6.648 9.23699 6.7204 9.05959 6.72 8.84999C6.7196 8.64039 6.6472 8.46279 6.5028 8.31719C6.3584 8.17159 6.1808 8.09919 5.97 8.09999C5.7592 8.10079 5.5818 8.17339 5.4378 8.31779C5.2938 8.46219 5.2212 8.63959 5.22 8.84999C5.2188 9.06039 5.2914 9.23799 5.4378 9.38279C5.5842 9.52759 5.7616 9.59999 5.97 9.59999ZM5.43 7.28999H6.54C6.54 6.95999 6.5776 6.69999 6.6528 6.50999C6.728 6.32 6.9404 6.06 7.29 5.73C7.55 5.47 7.755 5.2224 7.905 4.9872C8.055 4.752 8.13 4.4696 8.13 4.14C8.13 3.58 7.92499 3.15 7.515 2.85C7.105 2.55 6.62 2.4 6.06 2.4C5.49 2.4 5.0276 2.55 4.6728 2.85C4.318 3.15 4.0704 3.51 3.93 3.93L4.92 4.32C4.97 4.14 5.0826 3.945 5.2578 3.735C5.433 3.525 5.7004 3.42 6.06 3.42C6.38 3.42 6.62 3.5076 6.78 3.6828C6.94 3.858 7.02 4.0504 7.02 4.26C7.02 4.46 6.96 4.6476 6.84 4.8228C6.72 4.998 6.57 5.1604 6.39 5.31C5.95 5.7 5.68 5.995 5.58 6.19499C5.48 6.39499 5.43 6.75999 5.43 7.28999ZM6 12C5.17 12 4.39 11.8426 3.66 11.5278C2.93 11.213 2.295 10.7854 1.755 10.245C1.215 9.70459 0.7876 9.06959 0.4728 8.33999C0.158001 7.61039 0.000400759 6.83039 7.59493e-07 6C-0.00039924 5.1696 0.157201 4.3896 0.4728 3.66C0.7884 2.9304 1.2158 2.2954 1.755 1.755C2.2942 1.2146 2.9292 0.787202 3.66 0.472803C4.3908 0.158403 5.1708 0.000803029 6 3.0303e-06C6.8292 -0.000796969 7.6092 0.156803 8.33999 0.472803C9.07079 0.788802 9.7058 1.2162 10.245 1.755C10.7842 2.2938 11.2118 2.9288 11.5278 3.66C11.8438 4.3912 12.0012 5.1712 12 6C11.9988 6.82879 11.8412 7.60879 11.5272 8.33999C11.2132 9.07119 10.7858 9.70619 10.245 10.245C9.7042 10.7838 9.06919 11.2114 8.33999 11.5278C7.6108 11.8442 6.8308 12.0016 6 12Z" fill="#121212"/>
</svg>
