<svg width="14" height="14" viewBox="0 0 14 14" fill="none" xmlns="http://www.w3.org/2000/svg">
<path d="M4.33333 3.66667L1 7M1 7L4.33333 10.3333M1 7L9 7M7 3.66667C7 3.04669 7 2.73669 7.06815 2.48236C7.25308 1.79218 7.79218 1.25308 8.48236 1.06815C8.73669 1 9.04668 1 9.66667 1H10C10.9319 1 11.3978 1 11.7654 1.15224C12.2554 1.35523 12.6448 1.74458 12.8478 2.23463C13 2.60218 13 3.06812 13 4L13 10C13 10.9319 13 11.3978 12.8478 11.7654C12.6448 12.2554 12.2554 12.6448 11.7654 12.8478C11.3978 13 10.9319 13 10 13H9.66667C9.04668 13 8.73669 13 8.48236 12.9319C7.79218 12.7469 7.25308 12.2078 7.06815 11.5176C7 11.2633 7 10.9533 7 10.3333" stroke="#FF0000" stroke-width="1.5" stroke-linecap="round" stroke-linejoin="round"/>
</svg>
