<svg width="24" height="24" viewBox="0 0 24 24" fill="none" xmlns="http://www.w3.org/2000/svg">
<path d="M3.99013 21.2902L13.0301 18.0602C14.4101 17.5702 14.8101 15.8002 13.7701 14.7602L9.24013 10.2302C8.20013 9.19016 6.44013 9.59016 5.94013 10.9702L2.71013 20.0102C2.43013 20.8102 3.19013 21.5702 3.99013 21.2902ZM15.0601 12.0002L20.1201 6.94016C20.2362 6.82375 20.3742 6.7314 20.526 6.66838C20.6779 6.60537 20.8407 6.57293 21.0051 6.57293C21.1695 6.57293 21.3323 6.60537 21.4842 6.66838C21.6361 6.7314 21.774 6.82375 21.8901 6.94016L21.9501 7.00016C22.2401 7.29016 22.7201 7.29016 23.0101 7.00016C23.3001 6.71016 23.3001 6.23016 23.0101 5.94016L22.9501 5.88016C22.4331 5.3666 21.7339 5.07837 21.0051 5.07837C20.2764 5.07837 19.5772 5.3666 19.0601 5.88016L14.0001 10.9402C13.7101 11.2302 13.7101 11.7102 14.0001 12.0002C14.2901 12.2902 14.7701 12.2902 15.0601 12.0002ZM10.0601 6.88016L10.0001 6.94016C9.71013 7.23016 9.71013 7.71016 10.0001 8.00016C10.2901 8.29016 10.7701 8.29016 11.0601 8.00016L11.1201 7.94016C11.6337 7.42311 11.9219 6.72392 11.9219 5.99516C11.9219 5.2664 11.6337 4.56722 11.1201 4.05016L11.0701 4.00016C10.7701 3.70016 10.2901 3.70016 10.0001 4.00016C9.71013 4.29016 9.71013 4.77016 10.0001 5.06016L10.0601 5.12016C10.5401 5.60016 10.5401 6.40016 10.0601 6.88016ZM17.0601 11.8802L16.0001 12.9402C15.7101 13.2302 15.7101 13.7102 16.0001 14.0002C16.2901 14.2902 16.7701 14.2902 17.0601 14.0002L18.1201 12.9402C18.2362 12.8238 18.3742 12.7314 18.526 12.6684C18.6779 12.6054 18.8407 12.5729 19.0051 12.5729C19.1695 12.5729 19.3323 12.6054 19.4842 12.6684C19.6361 12.7314 19.774 12.8238 19.8901 12.9402L20.9701 14.0202C21.2601 14.3102 21.7401 14.3102 22.0301 14.0202C22.3201 13.7302 22.3201 13.2502 22.0301 12.9602L20.9501 11.8802C20.4331 11.3666 19.7339 11.0784 19.0051 11.0784C18.2764 11.0784 17.5772 11.3666 17.0601 11.8802ZM15.0601 5.88016L12.0001 8.94016C11.7101 9.23016 11.7101 9.71016 12.0001 10.0002C12.2901 10.2902 12.7701 10.2902 13.0601 10.0002L16.1201 6.94016C16.6337 6.42311 16.9219 5.72392 16.9219 4.99516C16.9219 4.2664 16.6337 3.56722 16.1201 3.05016L15.0601 1.99016C14.919 1.85068 14.7286 1.77246 14.5301 1.77246C14.3317 1.77246 14.1413 1.85068 14.0001 1.99016C13.7101 2.28016 13.7101 2.76016 14.0001 3.05016L15.0601 4.11016C15.5401 4.60016 15.5401 5.40016 15.0601 5.88016Z" fill="#FF6600"/>
</svg>
